<svg width="240" height="240" viewBox="0 0 240 240" fill="none" xmlns="http://www.w3.org/2000/svg">
<path d="M71.7781 209.84L79.097 204.321L92.7152 208.352L96.0529 216.174L80.2702 229.123L71.7781 209.84Z" fill="#F1F1F1" stroke="black" stroke-width="1.5" stroke-linecap="round" stroke-linejoin="round"/>
<path d="M12.8375 112.653L49.7539 42.4418L171.678 23.4971L227 72.231L151.287 231.81L12.8375 112.653Z" fill="#F1F1F1" stroke="black" stroke-width="1.5" stroke-linecap="round" stroke-linejoin="round"/>
<path d="M12.8375 112.654L87.809 119.54L167.706 104.553L227 72.2312" fill="#F1F1F1"/>
<path d="M12.8375 112.654L87.809 119.54L167.706 104.553L227 72.2312" stroke="black" stroke-width="1.5" stroke-linecap="round" stroke-linejoin="round"/>
<path d="M49.7539 42.4418L87.809 119.54L110.849 34.447L167.706 104.553L171.679 23.4971" stroke="black" stroke-width="1.5" stroke-linecap="round" stroke-linejoin="round"/>
<path d="M87.8091 119.54L149.328 230.122L167.706 104.554" stroke="black" stroke-width="1.5" stroke-linecap="round" stroke-linejoin="round"/>
<path d="M154.124 111.092C173.382 107.47 184.741 82.0839 179.494 54.3902C174.247 26.6965 154.382 7.18269 135.123 10.8048C115.865 14.427 104.506 39.8134 109.753 67.5071C115 95.2008 134.866 114.715 154.124 111.092Z" fill="#F1F1F1" stroke="black" stroke-width="1.5" stroke-linecap="round" stroke-linejoin="round"/>
<path d="M156.186 58.8009L131.955 46.0831C133.014 31.0961 139.555 20.3573 148.612 18.6422C161.35 16.2411 175.254 32.4153 179.438 54.4472C183.622 76.479 176.578 96.664 163.84 98.9595C152.717 101.07 140.456 89.0649 134.709 70.5423L156.186 58.8009Z" fill="#38C08F" stroke="black" stroke-width="1.5" stroke-linecap="round" stroke-linejoin="round"/>
<path d="M56.4539 80.2518C51.1575 52.5471 62.5713 27.1643 81.824 23.5495C101.077 19.9347 120.938 39.3808 126.182 67.1383C131.425 94.8957 120.064 120.226 100.812 123.841C81.5592 127.455 61.6974 107.93 56.4539 80.2518Z" fill="#F1F1F1" stroke="black" stroke-width="1.5" stroke-linecap="round" stroke-linejoin="round"/>
<path d="M102.983 71.5184L78.6991 58.7743C79.7584 43.7874 86.2995 33.0485 95.3565 31.3335C108.094 28.9588 122.024 45.1066 126.182 67.1384C130.34 89.1703 123.322 109.355 110.584 111.677C99.4612 113.762 87.2264 101.756 81.4533 83.26L102.983 71.5184Z" fill="#38C08F" stroke="black" stroke-width="1.5" stroke-linecap="round" stroke-linejoin="round"/>
<path d="M77.8252 139.672C77.8252 139.672 75.6802 119.593 92.7878 114.395C109.895 109.197 125.52 119.936 125.52 119.936" fill="#F1F1F1"/>
<path d="M77.8252 139.672C77.8252 139.672 75.6802 119.593 92.7878 114.395C109.895 109.197 125.52 119.936 125.52 119.936" stroke="black" stroke-width="1.5" stroke-linecap="round" stroke-linejoin="round"/>
<path d="M94.1647 133.577C94.1647 133.577 97.9252 120.385 110.054 122.627C122.183 124.87 126.87 134.263 138.364 130.754C149.857 127.245 160.529 138.168 151.128 152.364C141.727 166.559 121.998 166.612 110.372 161.915C98.7462 157.219 90.9074 142.891 94.1647 133.577Z" fill="#F1F1F1" stroke="black" stroke-width="1.5" stroke-linecap="round" stroke-linejoin="round"/>
<path d="M116.807 124.817C113.561 130.629 111.641 137.082 111.183 143.718C110.725 150.354 111.741 157.008 114.159 163.208" stroke="black" stroke-width="1.5" stroke-linecap="round" stroke-linejoin="round"/>
<path d="M127.903 130.464C127.903 130.464 125.811 150.648 133.676 163.815" stroke="black" stroke-width="1.5" stroke-linecap="round" stroke-linejoin="round"/>
<path d="M140.244 130.305C141.498 138.591 145.279 146.292 151.075 152.363" stroke="black" stroke-width="1.5" stroke-linecap="round" stroke-linejoin="round"/>
<path d="M14.4488 192.746L19.5262 174.227L47.2454 163.511L62.7706 172.23L53.1584 213.903L14.4488 192.746Z" fill="#F1F1F1" stroke="black" stroke-width="1.5" stroke-linecap="round" stroke-linejoin="round"/>
<path d="M14.3186 192.147L32.2939 189.846L50.3746 182.438L62.7716 172.236" fill="#F1F1F1"/>
<path d="M14.3186 192.147L32.2939 189.846L50.3746 182.438L62.7716 172.236" stroke="black" stroke-width="1.5" stroke-linecap="round" stroke-linejoin="round"/>
<path d="M20.2584 173.923L32.6861 189.142L34.0659 169.004L50.7015 182.031L47.6645 163.42" stroke="black" stroke-width="1.5" stroke-linecap="round" stroke-linejoin="round"/>
</svg>
