<svg width="240" height="240" viewBox="0 0 240 240" fill="none" xmlns="http://www.w3.org/2000/svg">
<path d="M105.103 123.345C93.7329 110.433 85.5864 95.0064 81.3321 78.3309C77.0778 61.6553 76.837 44.2059 80.6294 27.414C97.9125 53.3741 111.526 81.2941 116.645 112.043C110.937 75.9846 117.737 38.5327 133.579 5.63924C144.248 34.7381 147.767 67.4548 139.209 97.3137C144.079 65.4605 164.05 35.7041 189.018 15.3318C190.087 43.3375 183.128 71.0701 168.964 95.2606C181.406 74.5089 204.5 60.1909 228.334 56.0598C217.846 80.5827 200.376 101.48 178.104 116.148C193.105 106.828 212.233 104.298 229.727 106.684C216.184 125.694 196.405 139.352 173.836 145.277L174.972 144.385C152.393 137.58 127.643 130.046 105.103 123.345Z" fill="#F1F1F1" stroke="black" stroke-width="1.5" stroke-linecap="round" stroke-linejoin="round"/>
<path d="M180.082 198.387C171.025 236.213 142.839 241.088 111.481 233.622C80.1233 226.156 57.2016 208.991 66.2884 171.158C75.3752 133.325 108.169 108.759 139.591 116.291C171.013 123.824 189.185 160.485 180.082 198.387Z" fill="#F1F1F1" stroke="black" stroke-width="1.5" stroke-linecap="round" stroke-linejoin="round"/>
<path d="M74.1104 180.603C75.5077 192.156 80.7106 202.913 88.8983 211.177" stroke="black" stroke-width="1.5" stroke-linecap="round" stroke-linejoin="round"/>
<path d="M142.79 215.538L151.05 226.465" stroke="black" stroke-width="1.5" stroke-linecap="round" stroke-linejoin="round"/>
<path d="M158.839 179.463L168.459 191.951" stroke="black" stroke-width="1.5" stroke-linecap="round" stroke-linejoin="round"/>
<path d="M154.417 130.279C159.562 135 163.882 140.547 167.198 146.693" stroke="black" stroke-width="1.5" stroke-linecap="round" stroke-linejoin="round"/>
<path d="M172.551 175.012C170.635 177.15 168.738 179.3 166.809 181.456" stroke="black" stroke-width="1.5" stroke-linecap="round" stroke-linejoin="round"/>
<path d="M157.505 207.432L151.895 215.72" stroke="black" stroke-width="1.5" stroke-linecap="round" stroke-linejoin="round"/>
<path d="M96.7727 195.371L91.2825 198.267" stroke="black" stroke-width="1.5" stroke-linecap="round" stroke-linejoin="round"/>
<path d="M90.7306 175.241L79.2789 180.318" stroke="black" stroke-width="1.5" stroke-linecap="round" stroke-linejoin="round"/>
<path d="M91.9631 143.87L98.9149 160.995" stroke="black" stroke-width="1.5" stroke-linecap="round" stroke-linejoin="round"/>
<path d="M129.058 122.837C124.315 125.352 119.548 127.86 114.76 130.363" stroke="black" stroke-width="1.5" stroke-linecap="round" stroke-linejoin="round"/>
<path d="M108.186 134.947L113.718 147.084" stroke="black" stroke-width="1.5" stroke-linecap="round" stroke-linejoin="round"/>
<path d="M123.124 154.419C119.778 170.458 108.064 181.574 97.0412 179.297C86.018 177.021 79.6419 162.121 83.0067 146.094C86.3715 130.066 98.0662 118.939 109.089 121.215C120.113 123.492 126.47 138.379 123.124 154.419Z" fill="#F1F1F1" stroke="black" stroke-width="1.5" stroke-linecap="round" stroke-linejoin="round"/>
<path d="M96.3165 148.829L106.453 161.037C102.559 168.849 96.6827 173.159 91.4448 172.087C84.1118 170.544 80.2525 158.798 82.9315 146.046C85.6105 133.295 93.8599 123.979 101.176 125.59C107.547 126.951 111.449 136.07 110.422 147.148L96.3165 148.829Z" fill="#6B57EA" stroke="black" stroke-width="1.5" stroke-linecap="round" stroke-linejoin="round"/>
<path d="M154.405 159.366C151.059 175.405 139.345 186.521 128.322 184.244C117.299 181.968 110.942 167.08 114.287 151.041C117.633 135.001 129.347 123.886 140.37 126.162C151.393 128.439 157.703 143.402 154.405 159.366Z" fill="#F1F1F1" stroke="black" stroke-width="1.5" stroke-linecap="round" stroke-linejoin="round"/>
<path d="M120.335 187.102C120.335 187.102 126.726 178.278 135.856 177.371C144.985 176.465 152.57 181.003 155.258 184.763" fill="#F1F1F1"/>
<path d="M120.335 187.102C120.335 187.102 126.726 178.278 135.856 177.371C144.985 176.465 152.57 181.003 155.258 184.763" stroke="black" stroke-width="1.5" stroke-linecap="round" stroke-linejoin="round"/>
<path d="M127.597 153.777L137.752 165.996C133.84 173.796 127.892 178.22 122.725 177.034C115.392 175.491 111.533 163.745 114.212 150.994C116.891 138.242 125.159 128.938 132.457 130.538C138.827 131.898 142.73 141.017 141.702 152.096L127.597 153.777Z" fill="#6B57EA" stroke="black" stroke-width="1.5" stroke-linecap="round" stroke-linejoin="round"/>
<path d="M106.385 195.371C108.577 197.58 111.309 199.175 114.31 199.998C117.31 200.82 120.474 200.842 123.487 200.061C126.769 199.219 129.79 197.574 132.28 195.275C134.769 192.976 136.649 190.094 137.749 186.888" stroke="black" stroke-width="1.5" stroke-linecap="round" stroke-linejoin="round"/>
<path d="M133.262 185.918C133.262 185.918 142.135 186.218 144.037 188.171" stroke="black" stroke-width="1.5" stroke-linecap="round" stroke-linejoin="round"/>
<path d="M50.9774 125.934C58.2328 130.477 67.7974 128.278 72.3404 121.022C76.8833 113.767 74.6844 104.202 67.429 99.6594C60.1735 95.1164 50.6089 97.3153 46.066 104.571C41.523 111.826 43.7219 121.391 50.9774 125.934Z" fill="#F1F1F1" stroke="black" stroke-width="1.5" stroke-linecap="round" stroke-linejoin="round"/>
<path d="M16.8144 163.536C19.8571 165.441 23.868 164.519 25.7731 161.476C27.6782 158.433 26.7561 154.423 23.7135 152.517C20.6709 150.612 16.6599 151.534 14.7548 154.577C12.8497 157.62 13.7718 161.631 16.8144 163.536Z" fill="#F1F1F1" stroke="black" stroke-width="1.5" stroke-linecap="round" stroke-linejoin="round"/>
<path d="M53.5091 229.468C56.5518 231.373 60.5627 230.451 62.4678 227.408C64.3729 224.366 63.4508 220.355 60.4082 218.45C57.3656 216.544 53.3546 217.467 51.4495 220.509C49.5444 223.552 50.4665 227.563 53.5091 229.468Z" fill="#F1F1F1" stroke="black" stroke-width="1.5" stroke-linecap="round" stroke-linejoin="round"/>
<path d="M11.5464 124.841C14.589 126.746 18.5999 125.824 20.5051 122.782C22.4102 119.739 21.4881 115.728 18.4454 113.823C15.4028 111.918 11.3919 112.84 9.48675 115.883C7.58163 118.925 8.50375 122.936 11.5464 124.841Z" fill="#F1F1F1" stroke="black" stroke-width="1.5" stroke-linecap="round" stroke-linejoin="round"/>
<path d="M196.247 194.476C198.587 195.942 201.672 195.232 203.138 192.892C204.603 190.551 203.894 187.466 201.553 186.001C199.213 184.535 196.128 185.244 194.662 187.585C193.197 189.925 193.906 193.011 196.247 194.476Z" fill="#F1F1F1" stroke="black" stroke-width="1.5" stroke-linecap="round" stroke-linejoin="round"/>
<path d="M201.145 166.867C206.06 169.945 212.54 168.455 215.617 163.54C218.695 158.625 217.205 152.146 212.29 149.069C207.375 145.991 200.896 147.481 197.818 152.396C194.741 157.311 196.23 163.79 201.145 166.867Z" fill="#F1F1F1" stroke="black" stroke-width="1.5" stroke-linecap="round" stroke-linejoin="round"/>
<path d="M34.0611 72.8671C37.8058 75.2119 42.7424 74.077 45.0871 70.3322C47.4319 66.5874 46.297 61.6509 42.5522 59.3061C38.8075 56.9614 33.8709 58.0963 31.5262 61.841C29.1814 65.5858 30.3163 70.5223 34.0611 72.8671Z" fill="#F1F1F1" stroke="black" stroke-width="1.5" stroke-linecap="round" stroke-linejoin="round"/>
</svg>
