<svg width="241" height="241" viewBox="0 0 241 241" fill="none" xmlns="http://www.w3.org/2000/svg">
<path d="M95.9384 27.3311C95.9384 27.3311 169.685 48.0849 153.568 114.894C137.451 181.703 39.0715 177.888 17.5823 131.802C17.5823 131.802 -3.11317 224.736 105.187 238.623C213.488 252.51 258.023 143.4 233.39 81.9624C208.756 20.5251 145.815 1.23633 95.9384 27.3311Z" fill="#F1F1F1" stroke="black" stroke-width="1.5" stroke-linecap="round" stroke-linejoin="round"/>
<path d="M159.812 123.158C164.749 97.0049 154.061 73.0303 135.938 69.6097C117.815 66.1891 99.1211 84.6178 94.1834 110.771C89.2457 136.925 99.9343 160.899 118.057 164.32C136.18 167.741 154.874 149.312 159.812 123.158Z" fill="#F1F1F1" stroke="black" stroke-width="1.5" stroke-linecap="round" stroke-linejoin="round"/>
<path d="M115.932 114.802L138.765 102.777C137.788 88.6158 131.622 78.361 123.106 76.8655C111.11 74.607 98.0147 89.8671 94.077 110.682C90.1394 131.497 96.7937 150.358 108.759 152.739C119.229 154.692 130.767 143.369 136.231 125.881L115.932 114.802Z" fill="#3BADC4" stroke="black" stroke-width="1.5" stroke-linecap="round" stroke-linejoin="round"/>
<path d="M209.92 135.164C214.858 109.01 204.169 85.0359 186.046 81.6153C167.924 78.1947 149.229 96.6234 144.292 122.777C139.354 148.93 150.043 172.905 168.165 176.326C186.288 179.746 204.982 161.317 209.92 135.164Z" fill="#F1F1F1" stroke="black" stroke-width="1.5" stroke-linecap="round" stroke-linejoin="round"/>
<path d="M166.023 126.796L188.886 114.771C187.878 100.61 181.713 90.3551 173.196 88.8596C161.2 86.6011 148.105 101.861 144.168 122.676C140.23 143.491 146.884 162.352 158.88 164.733C169.32 166.717 180.858 155.363 186.169 137.906L166.023 126.796Z" fill="#3BADC4" stroke="black" stroke-width="1.5" stroke-linecap="round" stroke-linejoin="round"/>
<path d="M193.006 187.288C192.329 182.619 190.314 178.247 187.205 174.7C184.095 171.152 180.025 168.581 175.485 167.297C159.368 162.383 144.686 172.516 144.686 172.516" fill="#F1F1F1"/>
<path d="M193.006 187.288C192.329 182.619 190.314 178.247 187.205 174.7C184.095 171.152 180.025 168.581 175.485 167.297C159.368 162.383 144.686 172.516 144.686 172.516" stroke="black" stroke-width="1.5" stroke-linecap="round" stroke-linejoin="round"/>
<path d="M174.325 185.396C174.325 185.396 170.754 172.943 159.43 175.08C148.105 177.216 143.587 186.067 132.782 182.771C121.976 179.475 111.903 189.76 120.755 203.158C129.607 216.557 148.074 216.618 159.124 212.314C170.174 208.011 177.378 194.216 174.325 185.396Z" stroke="black" stroke-width="1.5" stroke-linecap="round" stroke-linejoin="round"/>
<path d="M153.019 177.155C156.071 182.645 157.876 188.741 158.303 195.008C158.73 201.275 157.77 207.559 155.492 213.413" stroke="black" stroke-width="1.5" stroke-linecap="round" stroke-linejoin="round"/>
<path d="M142.549 182.465C142.549 182.465 144.533 201.541 137.116 213.962" stroke="black" stroke-width="1.5" stroke-linecap="round" stroke-linejoin="round"/>
<path d="M130.95 182.344C129.766 190.163 126.207 197.429 120.755 203.158" stroke="black" stroke-width="1.5" stroke-linecap="round" stroke-linejoin="round"/>
</svg>
