<svg width="109" height="200" viewBox="0 0 109 200" fill="none" xmlns="http://www.w3.org/2000/svg">
<path d="M109 99.7815C109 129.725 84.7256 154 54.7816 154C24.8376 154 0.563232 129.725 0.563232 99.7815C0.563232 69.8375 24.8376 45.5631 54.7816 45.5631C84.7256 45.5631 109 69.8375 109 99.7815ZM9.63658 99.7815C9.63658 124.714 29.8487 144.927 54.7816 144.927C79.7146 144.927 99.9267 124.714 99.9267 99.7815C99.9267 74.8486 79.7146 54.6365 54.7816 54.6365C29.8487 54.6365 9.63658 74.8486 9.63658 99.7815Z" fill="#F3F4F6"/>
<path d="M25 63.1189L54.5737 2L84.1473 63.1189C84.1473 63.1189 69.3605 53.7539 54.5737 54.2468C39.7868 54.7397 25 63.1189 25 63.1189Z" fill="#F3F4F6" stroke="#F3F4F6"/>
<path d="M84.1475 137L54.5738 198.119L25.0001 137C25.0001 137 39.787 146.365 54.5738 145.872C69.3606 145.379 84.1475 137 84.1475 137Z" fill="#F3F4F6" stroke="#F3F4F6"/>
</svg>
